<svg width="21" height="20" viewBox="0 0 21 20" fill="none" xmlns="http://www.w3.org/2000/svg">
<path d="M6.5 17.5C6.5 18.3284 5.82843 19 5 19C4.17157 19 3.5 18.3284 3.5 17.5C3.5 16.6716 4.17157 16 5 16C5.82843 16 6.5 16.6716 6.5 17.5Z" stroke="white" stroke-width="2"/>
<path d="M17.5 17.5C17.5 18.3284 16.8284 19 16 19C15.1716 19 14.5 18.3284 14.5 17.5C14.5 16.6716 15.1716 16 16 16C16.8284 16 17.5 16.6716 17.5 17.5Z" stroke="white" stroke-width="2"/>
<path d="M2.5 7C2.5 5.89543 3.39543 5 4.5 5H15.5C16.6046 5 17.5 5.89543 17.5 7V8.35742C17.5 11.5993 14.4624 13.984 11.3132 13.2145L6.3132 11.9928C4.07477 11.4459 2.5 9.43998 2.5 7.1357V7Z" stroke="white" stroke-width="2"/>
<path d="M20.5 1H18.5C17.9477 1 17.5 1.44772 17.5 2V9" stroke="white" stroke-width="2"/>
<path d="M5.5 17L14.5 17" stroke="white" stroke-width="2"/>
</svg>
